<svg xmlns="http://www.w3.org/2000/svg" viewBox="0 0 32 32"><defs><style>.cls-1{isolation:isolate;}.cls-2{fill:#f2b31c;mix-blend-mode:lighten;}.cls-3{fill:#fff;}</style></defs><title>Monkai Favicon</title><g class="cls-1"><g id="Layer_1" data-name="Layer 1"><path class="cls-2" d="M25.75,12.14l1.05,2.38s1.11,1.74-.25,2.85-3.22,1.26-4.07-.2a45.68,45.68,0,0,1-2-4.25,2.55,2.55,0,0,1,1.62-2C23.48,10.48,25.36,11.27,25.75,12.14Z"/><path class="cls-3" d="M26.4,13.62c-.14-.32-.77-.64-1-.79-5.61-3.09-4.5,8.6-8.85,8.42-1.2-.05-2-1.16-2.56-2.08-.82-1.3-1.15-2.81-1.87-4.15,0,0-.35-.65-.65.21s-4.12,9.2-4.12,9.2a2.72,2.72,0,0,1-2.67,1.5A2.76,2.76,0,0,1,2.3,23.37,9.58,9.58,0,0,1,3.48,20.3c1.06-2.23,2.1-4.47,3.15-6.71C7.34,12.06,8,10.49,8.73,9,9.32,7.8,10,6.22,11.46,6.09c1.84-.17,2.6,1.54,3.28,2.9.44.89.71,1.87,1.2,2.75.31.54.44.92.9.37a10.07,10.07,0,0,0,.91-2.27c.54-1.14,1.34-3.19,2.63-3.67a2.75,2.75,0,0,1,3.11,1.27C23.94,8.19,26.4,13.61,26.4,13.62Z"/><circle class="cls-2" cx="27.33" cy="22.13" r="2.37"/></g></g></svg>